<?xml version="1.0" encoding="UTF-8"?>
<svg version="1.1" xmlns="http://www.w3.org/2000/svg" width="300" height="300">
<path d="M0 0 C0.76166473 -0.00067474 1.52332947 -0.00134949 2.30807495 -0.00204468 C13.68231924 0.01397391 24.55273892 0.48473358 35.625 3.25 C36.30127441 3.41097168 36.97754883 3.57194336 37.67431641 3.73779297 C60.66255814 9.31475863 81.89929235 20.66454808 99.625 36.25 C100.49898437 37.0028125 101.37296875 37.755625 102.2734375 38.53125 C129.36739908 62.28931841 146.22310385 96.66174898 150.625 132.25 C150.74790466 134.86507206 150.83433361 137.45490778 150.86328125 140.0703125 C150.8730751 140.80286255 150.88286896 141.5354126 150.89295959 142.29016113 C151.0629111 158.30007931 151.03532843 173.7232273 146.625 189.25 C146.41069336 190.01860352 146.19638672 190.78720703 145.97558594 191.57910156 C139.75775318 213.21933174 129.18538989 232.12533092 114.625 249.25 C113.63886719 250.41982422 113.63886719 250.41982422 112.6328125 251.61328125 C108.30364744 256.62466881 103.76413426 261.07771982 98.625 265.25 C97.20574219 266.40822266 97.20574219 266.40822266 95.7578125 267.58984375 C68.43364039 289.47477785 35.90678128 300.73922746 0.9375 300.5625 C-0.18626541 300.55976578 -0.18626541 300.55976578 -1.33273315 300.55697632 C-12.60256686 300.51083098 -23.4061054 299.98945093 -34.375 297.25 C-35.05127441 297.08902832 -35.72754883 296.92805664 -36.42431641 296.76220703 C-59.41255814 291.18524137 -80.64929235 279.83545192 -98.375 264.25 C-99.68597656 263.12078125 -99.68597656 263.12078125 -101.0234375 261.96875 C-128.11739908 238.21068159 -144.97310385 203.83825102 -149.375 168.25 C-149.49790466 165.63492794 -149.58433361 163.04509222 -149.61328125 160.4296875 C-149.62797203 159.33086243 -149.62797203 159.33086243 -149.64295959 158.20983887 C-149.8129111 142.19992069 -149.78532843 126.7767727 -145.375 111.25 C-145.16069336 110.48139648 -144.94638672 109.71279297 -144.72558594 108.92089844 C-133.75445544 70.73753159 -108.15112305 38.33635529 -73.6875 18.5625 C-50.61901657 5.8067525 -26.23115932 0.02081754 0 0 Z " fill="#FEEA0E" transform="translate(149.375,-0.24999999999999997)"/>
<path d="M0 0 C0.86825912 0.00222061 1.73651825 0.00444122 2.63108826 0.00672913 C3.61202957 0.00680466 4.59297089 0.00688019 5.6036377 0.00695801 C6.6702916 0.01211929 7.7369455 0.01728058 8.83592224 0.02259827 C10.46520912 0.02472069 10.46520912 0.02472069 12.12741089 0.02688599 C15.61230674 0.03250403 19.09713941 0.04505959 22.58201599 0.05775452 C24.93813486 0.06276719 27.29425473 0.0673305 29.65037537 0.07142639 C35.44011063 0.08247933 41.2298088 0.09923501 47.01951599 0.12025452 C45.6992918 3.57090161 44.1974515 6.80265728 42.43748474 10.04994202 C41.924599 10.99772522 41.41171326 11.94550842 40.88328552 12.92201233 C40.33011658 13.93618225 39.77694763 14.95035217 39.20701599 15.99525452 C38.3385907 17.59385315 38.3385907 17.59385315 37.45262146 19.2247467 C33.07129486 27.26172416 28.57499484 35.22907922 24.04222107 43.18128967 C19.0830712 51.92155949 14.34328503 60.77464384 9.65867615 69.66419983 C8.47734062 71.89299723 7.26508192 74.10562406 6.02561951 76.30262756 C4.43684226 79.18215535 3.20609743 82.10968548 1.99583435 85.16639709 C-0.26531041 90.42707752 -2.50346486 95.39576185 -6.98048401 99.12025452 C-14.94462301 102.1340643 -23.85619556 100.90479931 -32.16798401 100.30775452 C-34.47818324 100.21233994 -36.78876102 100.12566635 -39.09962463 100.04798889 C-44.73489874 99.83960764 -50.35592463 99.5228496 -55.98048401 99.12025452 C-54.172768 94.47528232 -51.99496889 90.14655933 -49.66798401 85.74525452 C-49.22994446 84.91437317 -48.79190491 84.08349182 -48.34059143 83.22743225 C-44.41682432 75.83930262 -40.29558569 68.57021531 -36.15113831 61.30433655 C-31.79916222 53.6436966 -27.61690442 45.89860285 -23.48048401 38.12025452 C-18.62687462 28.99732325 -13.69150818 19.92848218 -8.60548401 10.93275452 C-8.05183167 9.95242249 -7.49817932 8.97209045 -6.92774963 7.96205139 C-2.48775584 0.15105594 -2.48775584 0.15105594 0 0 Z " fill="#0F1115" transform="translate(129.98048400878906,98.87974548339844)"/>
<path d="M0 0 C1.0236264 0.00212242 1.0236264 0.00212242 2.06793213 0.00428772 C4.23804184 0.00986541 6.4080467 0.02241371 8.578125 0.03515625 C10.05338392 0.04017414 11.52864447 0.04473654 13.00390625 0.04882812 C16.61201298 0.0598275 20.22005875 0.07707672 23.828125 0.09765625 C22.64405018 3.90466425 21.32058785 7.28600017 19.31640625 10.73046875 C18.81367187 11.60445312 18.3109375 12.4784375 17.79296875 13.37890625 C17.24769531 14.31734375 16.70242187 15.25578125 16.140625 16.22265625 C11.04737732 25.10142585 6.12905037 34.0577613 1.328125 43.09765625 C-3.77994727 52.7077611 -8.99727084 62.24451872 -14.43359375 71.67382812 C-19.60650745 80.69846541 -24.31259282 89.8650201 -29.171875 99.09765625 C-45.671875 99.09765625 -62.171875 99.09765625 -79.171875 99.09765625 C-77.60479513 95.17995657 -75.97383211 91.77200589 -73.93359375 88.109375 C-73.61655991 87.53788727 -73.29952606 86.96639954 -72.97288513 86.37759399 C-72.2918609 85.15050413 -71.60955584 83.92412439 -70.92608643 82.69839478 C-69.10739802 79.43642097 -67.2982423 76.16916564 -65.48828125 72.90234375 C-65.12232849 72.24234879 -64.75637573 71.58235382 -64.3793335 70.90235901 C-60.97718866 64.76055395 -57.63073662 58.58927018 -54.296875 52.41015625 C-52.7444441 49.54074885 -51.19107031 46.67185461 -49.63720703 43.80322266 C-48.6711557 42.01952041 -47.70596617 40.23535111 -46.74169922 38.45068359 C-45.41253048 35.9960053 -44.07479924 33.54620218 -42.734375 31.09765625 C-42.35748535 30.39809814 -41.9805957 29.69854004 -41.59228516 28.9777832 C-34.25205843 15.64623034 -24.2375755 5.3842888 -9.45141602 0.53320312 C-6.27951757 -0.07284452 -3.22819557 -0.01323031 0 0 Z " fill="#101114" transform="translate(94.171875,98.90234375)"/>
<path d="M0 0 C16.17 0 32.34 0 49 0 C47.5946128 4.2161616 46.38865971 7.41057846 44.3125 11.203125 C43.78422607 12.17338623 43.25595215 13.14364746 42.71166992 14.14331055 C41.86439331 15.68112183 41.86439331 15.68112183 41 17.25 C40.41259033 18.32483643 39.82518066 19.39967285 39.2199707 20.50708008 C35.51743919 27.2717951 31.79495577 34.02598519 28.03027344 40.75634766 C25.69188101 44.93872419 23.37797013 49.13336665 21.08808899 53.34254456 C19.66748162 55.9529582 18.24216413 58.56078934 16.81680298 61.16860962 C16.11500558 62.45562297 15.41537813 63.74382235 14.71810913 65.03329468 C6.59540373 80.04976201 -0.75921183 90.51825046 -17 97 C-17.72445312 97.34748291 -18.44890625 97.69496582 -19.1953125 98.05297852 C-22.7436456 99.25109691 -25.74495732 99.22513978 -29.48828125 99.1953125 C-30.19147995 99.1924826 -30.89467865 99.18965271 -31.6191864 99.18673706 C-33.85046892 99.17560151 -36.08134017 99.15050997 -38.3125 99.125 C-39.83137438 99.1149616 -41.3502551 99.10583726 -42.86914062 99.09765625 C-46.57955921 99.07568413 -50.28973942 99.04120047 -54 99 C-49.89810215 90.64602387 -45.65708778 82.43694965 -41 74.375 C-36.01783369 65.66058952 -31.21112027 56.86307289 -26.5 48 C-20.79822718 37.27813813 -14.92393478 26.66680121 -8.90234375 16.12109375 C-5.87562978 10.78055268 -2.93948038 5.38904737 0 0 Z " fill="#101114" transform="translate(186,99)"/>
<path d="M0 0 C5.58076151 3.40359901 10.26838841 9.20560351 12.29296875 15.3984375 C13.30256214 24.19451993 12.25330524 31.36959438 6.71484375 38.40234375 C0.94197031 44.63028604 -4.1457491 46.5440609 -12.51953125 46.9609375 C-19.59311509 46.78052729 -24.43431827 45.15839124 -29.70703125 40.3984375 C-36.31263582 32.45550194 -37.5317645 25.61057567 -36.70703125 15.3984375 C-34.96650475 8.31872835 -29.45737433 3.52937536 -23.70703125 -0.6015625 C-16.05936458 -4.34042176 -7.6147435 -3.41392316 0 0 Z " fill="#0F1115" transform="translate(276.70703125,101.6015625)"/>
<path d="M0 0 C0.44730469 0.40992188 0.89460937 0.81984375 1.35546875 1.2421875 C4.73744485 4.25640074 7.579668 6.66050545 12 8 C12 8.66 12 9.32 12 10 C6.80333579 8.6389689 3.7862749 6.69612549 0 3 C0 2.01 0 1.02 0 0 Z " fill="#1C1B14" transform="translate(245,137)"/>
</svg>
