<?xml version="1.0" encoding="UTF-8"?>
<svg version="1.1" xmlns="http://www.w3.org/2000/svg" width="256" height="256">
<path d="M0 0 C84.48 0 168.96 0 256 0 C256 84.48 256 168.96 256 256 C171.52 256 87.04 256 0 256 C0 171.52 0 87.04 0 0 Z " fill="#0008D8" transform="translate(0,0)"/>
<path d="M0 0 C2.23392433 0.90420747 4.17611952 1.93682446 6.2109375 3.22265625 C8.56447141 4.24526159 9.61911575 3.86067328 12 3 C13.134375 2.484375 14.26875 1.96875 15.4375 1.4375 C22.87806786 -1.36137283 31.11521889 -1.03858152 38.5 1.75 C46.04185945 5.24679105 50.42734263 10.22220773 54.3125 17.4375 C55.27837595 21.0375831 55.12619486 24.27725178 55 28 C55.7425 28.226875 56.485 28.45375 57.25 28.6875 C61.09146563 30.52092678 63.11488412 33.22976824 65 37 C65.65298597 44.65385198 65.94895305 50.87892649 61 57 C55.70460809 62.02383335 48.96231807 62.21493149 42 63 C41.93941406 63.60328125 41.87882812 64.2065625 41.81640625 64.828125 C41.73261719 65.62734375 41.64882812 66.4265625 41.5625 67.25 C41.44068359 68.43335938 41.44068359 68.43335938 41.31640625 69.640625 C41 72 41 72 40.46875 74.09375 C39.81759426 76.74178336 39.93832134 79.28613893 40 82 C42.70680847 82.86617871 44.48036178 82.96441765 47.375 82.75 C52.26612974 83.08731929 53.58312882 84.58312882 57 88 C58.55024464 91.10048928 58.28992015 93.57894218 58 97 C56.20437595 99.75329021 54.94745078 101.52627461 52 103 C48.94079426 103.42071592 46.0532254 103.48514117 43 103 C40.24430553 100.81840855 38.56411253 99.12822506 37 96 C37.10813677 94.6027591 37.23579122 93.20698794 37.375 91.8125 C37.51354087 89.34093042 37.51354087 89.34093042 37 87 C35.4499022 85.41757958 35.4499022 85.41757958 33.5 84.0625 C31.26487623 82.19165194 30.13724903 80.8521972 29.66845703 77.94140625 C29.37005042 72.61599595 29.64555489 67.31667666 30 62 C26.04 62 22.08 62 18 62 C17.67 60.35 17.34 58.7 17 57 C16.34 56.67 15.68 56.34 15 56 C14.67 55.01 14.34 54.02 14 53 C11.85450988 54.50077014 11.85450988 54.50077014 10 57 C9.65858413 59.81984223 9.55124126 62.21311649 9.65234375 65.01953125 C9.66834122 65.79632736 9.68433868 66.57312347 9.70082092 67.37345886 C9.74059473 69.01528417 9.79084265 70.65688462 9.85083008 72.2980957 C9.93684604 74.79352771 9.97549788 77.28658839 10.00976562 79.78320312 C10.05442222 81.38289518 10.10185938 82.98251251 10.15234375 84.58203125 C10.16526711 85.69019951 10.16526711 85.69019951 10.17845154 86.820755 C10.40749121 91.79716877 11.66149205 94.60468981 14.88722229 98.41069031 C16.86771733 101.23930552 16.48688474 103.71352798 16 107 C14.74544028 109.82275936 13.71615278 111.46288541 11.25 113.3125 C7.9789382 114.31199111 5.40257412 114.3581657 2 114 C-1.38939556 111.86320715 -2.72582557 110.8225233 -4 107 C-4.68986384 99.87140696 -4.68986384 99.87140696 -1.625 96 C1 94 1 94 3 94 C3 83.44 3 72.88 3 62 C-0.3 62 -3.6 62 -7 62 C-7.33 60.35 -7.66 58.7 -8 57 C-9.32 56.67 -10.64 56.34 -12 56 C-12 55.34 -12 54.68 -12 54 C-12.66 54 -13.32 54 -14 54 C-13.67 54.99 -13.34 55.98 -13 57 C-13.66 57.99 -14.32 58.98 -15 60 C-15.2849731 62.14196022 -15.2849731 62.14196022 -15.23828125 64.4921875 C-15.25439453 65.36230469 -15.27050781 66.23242188 -15.28710938 67.12890625 C-15.30396357 68.95175244 -15.3092728 70.77474387 -15.30273438 72.59765625 C-15.4062237 77.11780297 -15.48276289 79.32151179 -18.29296875 83.0078125 C-20.50087179 84.63267621 -22.46907589 85.96888277 -25 87 C-24.93039063 87.56847656 -24.86078125 88.13695312 -24.7890625 88.72265625 C-24.47456046 93.20805435 -24.67151333 96.35659692 -27.375 100.0625 C-30.09231347 102.82499446 -32.21230967 103.55927373 -36.0625 103.8125 C-39.58263342 103.54702991 -41.67224783 103.02302223 -44.125 100.4375 C-46.31544373 96.42168649 -46.80349809 94.4995893 -46 90 C-44.19232307 87.0359415 -42.15604655 84.57802327 -39 83 C-36.52807667 83.08750171 -34.07125758 83.25914464 -31.60546875 83.453125 C-27.67536886 82.76962937 -26.34910942 81.1692371 -24 78 C-23.29372942 75.22245169 -23.21047701 72.54430865 -23.1875 69.6875 C-23.16236328 68.94693359 -23.13722656 68.20636719 -23.11132812 67.44335938 C-23.05281557 65.62947031 -23.02345651 63.81468097 -23 62 C-24.12535156 61.99613281 -24.12535156 61.99613281 -25.2734375 61.9921875 C-34.1157949 61.65809339 -40.62476366 59.56948573 -46.84765625 53.0703125 C-52.4293587 46.02118459 -54.70499378 39.43452732 -54.4765625 30.421875 C-53.46470104 23.15637794 -50.07137085 16.51907586 -44.6875 11.5 C-42.88671875 10.1796875 -42.88671875 10.1796875 -41 9 C-40.36707031 8.59007813 -39.73414062 8.18015625 -39.08203125 7.7578125 C-32.99471719 4.44576545 -27.17240653 4.80757817 -20.453125 5.25 C-16.32909887 4.95142797 -14.94606811 3.79770497 -12 1 C-8.28701861 -0.8564907 -4.05114639 -0.46197283 0 0 Z " fill="#030AD5" transform="translate(122,71)"/>
<path d="M0 0 C2.23392433 0.90420747 4.17611952 1.93682446 6.2109375 3.22265625 C8.56447141 4.24526159 9.61911575 3.86067328 12 3 C13.134375 2.484375 14.26875 1.96875 15.4375 1.4375 C22.87806786 -1.36137283 31.11521889 -1.03858152 38.5 1.75 C46.04185945 5.24679105 50.42734263 10.22220773 54.3125 17.4375 C55.27837595 21.0375831 55.12619486 24.27725178 55 28 C55.7425 28.226875 56.485 28.45375 57.25 28.6875 C61.09146563 30.52092678 63.11488412 33.22976824 65 37 C65.65298597 44.65385198 65.94895305 50.87892649 61 57 C56.1115548 61.42287899 51.32722141 61.7499122 45 62 C45 60.35 45 58.7 45 57 C45.59167969 56.91363281 46.18335938 56.82726562 46.79296875 56.73828125 C52.34144055 55.75168512 55.34749222 54.56563473 59 50 C60.60038853 46.79922293 60.35547355 43.480958 60 40 C58.44529173 35.97604918 57.34517383 35.16068437 53.375 33.3125 C51.5 32.34765625 51.5 32.34765625 50 31 C49.43027706 28.5030112 49.3717787 26.15490148 49.28515625 23.59765625 C48.67097213 18.00269134 45.10703698 13.76508704 41 10.125 C34.55678226 5.5610541 28.71461734 5.33406358 21 6 C16.31846704 7.15980111 12.35025115 9.56158435 9 13 C6.57179692 17.17047309 4.52629813 21.42110561 3 26 C3.70125 26.0825 4.4025 26.165 5.125 26.25 C8.73489415 27.19171152 11.08785384 28.6835201 14 31 C14.875 33.25 14.875 33.25 15 35 C13.375 35.75 13.375 35.75 11 36 C10.113125 35.360625 9.22625 34.72125 8.3125 34.0625 C4.0765936 31.42504885 0.87523671 30.97960162 -4 32 C-7.78791213 34.0346959 -10.49443847 36.93498388 -12 41 C-13.65 41 -15.3 41 -17 41 C-16.47178451 36.96443369 -15.40673398 34.82287252 -12.6875 31.8125 C-12.09324219 31.13832031 -11.49898437 30.46414062 -10.88671875 29.76953125 C-7.97641552 27.0399922 -6.00832333 26 -2 26 C-1.90203125 25.41992188 -1.8040625 24.83984375 -1.703125 24.2421875 C-0.68704115 18.9340253 0.81655652 15.45682087 4 11 C4 10.01 4 9.02 4 8 C-0.55092289 5.40545086 -4.86997506 5.04355467 -10 6 C-12.12502378 7.41802154 -13.72097367 8.89183263 -15.4296875 10.78515625 C-15.94789062 11.18605469 -16.46609375 11.58695313 -17 12 C-18.87109375 11.70703125 -18.87109375 11.70703125 -21 11 C-28.91596068 10.12737441 -34.59809638 11.148453 -41 16 C-45.96526267 20.96526267 -48.14916454 26.40299054 -48.5 33.3125 C-48.29205956 39.3677256 -46.68462313 44.16604489 -43 49 C-37.19533011 53.92396136 -32.42344454 56.08214444 -24.875 56.5625 C-23.59367187 56.64628906 -22.31234375 56.73007813 -20.9921875 56.81640625 C-20.00476563 56.87699219 -19.01734375 56.93757813 -18 57 C-17.79525999 60.68667002 -17.67190169 64.37186743 -17.5625 68.0625 C-17.50384766 69.10083984 -17.44519531 70.13917969 -17.38476562 71.20898438 C-17.21309658 78.93409144 -17.21309658 78.93409144 -19.5871582 82.14990234 C-21.5234375 83.96484375 -21.5234375 83.96484375 -23.47802734 85.44897461 C-25.22922664 86.91514907 -25.22922664 86.91514907 -25.25952148 89.29736328 C-25.16199585 90.38766846 -25.16199585 90.38766846 -25.0625 91.5 C-24.77868527 95.17697755 -25.17323973 97.06009963 -27.375 100.0625 C-30.09231347 102.82499446 -32.21230967 103.55927373 -36.0625 103.8125 C-39.58263342 103.54702991 -41.67224783 103.02302223 -44.125 100.4375 C-46.31544373 96.42168649 -46.80349809 94.4995893 -46 90 C-44.19232307 87.0359415 -42.15604655 84.57802327 -39 83 C-36.52807667 83.08750171 -34.07125758 83.25914464 -31.60546875 83.453125 C-27.67536886 82.76962937 -26.34910942 81.1692371 -24 78 C-23.29372942 75.22245169 -23.21047701 72.54430865 -23.1875 69.6875 C-23.16236328 68.94693359 -23.13722656 68.20636719 -23.11132812 67.44335938 C-23.05281557 65.62947031 -23.02345651 63.81468097 -23 62 C-24.12535156 61.99613281 -24.12535156 61.99613281 -25.2734375 61.9921875 C-34.1157949 61.65809339 -40.62476366 59.56948573 -46.84765625 53.0703125 C-52.4293587 46.02118459 -54.70499378 39.43452732 -54.4765625 30.421875 C-53.46470104 23.15637794 -50.07137085 16.51907586 -44.6875 11.5 C-42.88671875 10.1796875 -42.88671875 10.1796875 -41 9 C-40.36707031 8.59007813 -39.73414062 8.18015625 -39.08203125 7.7578125 C-32.99471719 4.44576545 -27.17240653 4.80757817 -20.453125 5.25 C-16.32909887 4.95142797 -14.94606811 3.79770497 -12 1 C-8.28701861 -0.8564907 -4.05114639 -0.46197283 0 0 Z " fill="#E9EBF7" transform="translate(122,71)"/>
<path d="M0 0 C4.95 0 9.9 0 15 0 C15 12.21 15 24.42 15 37 C16.65 37.66 18.3 38.32 20 39 C22.64998169 41.46722433 22.97758111 42.79449348 23.375 46.4375 C22.97632857 50.22487861 22.3622451 52.04719363 20 55 C16.57905881 57.56570589 13.15226516 57.43708054 9 57 C5.61060444 54.86320715 4.27417443 53.8225233 3 50 C2.31013616 42.87140696 2.31013616 42.87140696 5.375 39 C8 37 8 37 10 37 C10 26.44 10 15.88 10 5 C6.7 5 3.4 5 0 5 C0 3.35 0 1.7 0 0 Z " fill="#E6E7F7" transform="translate(115,128)"/>
<path d="M0 0 C5.28 0 10.56 0 16 0 C16.01417969 1.45792969 16.02835938 2.91585937 16.04296875 4.41796875 C16.08987627 6.34117722 16.13812362 8.26435333 16.1875 10.1875 C16.19330078 11.14720703 16.19910156 12.10691406 16.20507812 13.09570312 C16.35029073 17.75864106 16.49719323 20.28783641 19.2421875 24.17578125 C22.29393367 26.19442921 23.38201866 26.44934993 26.9375 26 C30.70575169 25.78627826 32.63051485 25.92459695 35.5625 28.375 C38.41576286 31.44774462 38.92120729 32.16479726 39.3125 36.3125 C38.95124058 40.57536111 37.98007946 42.01992054 35 45 C31.52736727 46.73631636 27.78806987 46.60190402 24 46 C21.24430553 43.81840855 19.56411253 42.12822506 18 39 C18.10813677 37.6027591 18.23579122 36.20698794 18.375 34.8125 C18.51354087 32.34093042 18.51354087 32.34093042 18 30 C16.4499022 28.41757958 16.4499022 28.41757958 14.5 27.0625 C12.26487623 25.19165194 11.13724903 23.8521972 10.66845703 20.94140625 C10.37005042 15.61599595 10.64555489 10.31667666 11 5 C7.37 5 3.74 5 0 5 C0 3.35 0 1.7 0 0 Z " fill="#E1E3F5" transform="translate(141,128)"/>
<path d="M0 0 C1.32 0 2.64 0 4 0 C4.20488457 3.51996201 4.32813842 7.03837879 4.4375 10.5625 C4.49615234 11.55314453 4.55480469 12.54378906 4.61523438 13.56445312 C4.78697927 20.94948375 4.78697927 20.94948375 2.4128418 24.11865234 C0.4765625 25.93359375 0.4765625 25.93359375 -1.47802734 27.43139648 C-3.22769727 28.9148096 -3.22769727 28.9148096 -3.25952148 31.29931641 C-3.16199585 32.38865479 -3.16199585 32.38865479 -3.0625 33.5 C-2.77868527 37.17697755 -3.17323973 39.06009963 -5.375 42.0625 C-8.09231347 44.82499446 -10.21230967 45.55927373 -14.0625 45.8125 C-17.58263342 45.54702991 -19.67224783 45.02302223 -22.125 42.4375 C-24.31544373 38.42168649 -24.80349809 36.4995893 -24 32 C-22.19232307 29.0359415 -20.15604655 26.57802327 -17 25 C-14.56051317 25.12723942 -12.13529651 25.32323146 -9.703125 25.55078125 C-6.21303674 24.83965055 -4.55876017 23.50699235 -2.17333984 20.90942383 C0.01187319 17.35333745 -0.41203267 13.72876779 -0.6875 9.6875 C-0.81222916 6.79151558 -0.91416774 3.89757866 -1 1 C-0.67 0.67 -0.34 0.34 0 0 Z " fill="#ECEEF7" transform="translate(100,129)"/>
<path d="M0 0 C4.95 0 9.9 0 15 0 C15 12.21 15 24.42 15 37 C16.32 37.66 17.64 38.32 19 39 C14.375 41.125 14.375 41.125 11 40 C10 39 10 39 9.88647461 35.76538086 C9.88663369 34.33185874 9.89232593 32.89833088 9.90234375 31.46484375 C9.9037587 30.71159317 9.90517365 29.95834259 9.90663147 29.18226624 C9.91224624 26.7673044 9.92480117 24.35243399 9.9375 21.9375 C9.9425131 20.30403779 9.94707634 18.67057414 9.95117188 17.03710938 C9.96222046 13.02470415 9.97949494 9.01236759 10 5 C6.7 5 3.4 5 0 5 C0 3.35 0 1.7 0 0 Z " fill="#E8EAF6" transform="translate(115,128)"/>
<path d="M0 0 C5.98654709 -0.59865471 5.98654709 -0.59865471 8.765625 1.04296875 C12.36374501 4.02102439 13.87385724 5.66288679 14.3125 10.3125 C13.95124058 14.57536111 12.98007946 16.01992054 10 19 C6.52736727 20.73631636 2.78806987 20.60190402 -1 20 C-3.75569447 17.81840855 -5.43588747 16.12822506 -7 13 C-6.91348369 11.45386986 -6.75997364 9.91090613 -6.5625 8.375 C-6.46066406 7.55773437 -6.35882813 6.74046875 -6.25390625 5.8984375 C-6.17011719 5.27195313 -6.08632812 4.64546875 -6 4 C-5.855625 4.61875 -5.71125 5.2375 -5.5625 5.875 C-5.06847775 8.03258322 -5.06847775 8.03258322 -4 10 C-3.67 10.99 -3.34 11.98 -3 13 C-0.15288631 14.58172983 1.49560063 15.05731811 4.75 14.6875 C6.9481469 14.20839076 6.9481469 14.20839076 8 13 C8.2500773 10.54190002 8.2500773 10.54190002 8 8 C6.04783565 6.04783565 4.46800047 5.15173355 2 4 C2.99 3.67 3.98 3.34 5 3 C5.33 2.34 5.66 1.68 6 1 C4.02 1 2.04 1 0 1 C0 0.67 0 0.34 0 0 Z " fill="#EAEBF8" transform="translate(166,154)"/>
<path d="M0 0 C0.66 0.33 1.32 0.66 2 1 C2.47038817 8.22568494 2.52704262 13.16249768 -2 19 C-6.8884452 23.42287899 -11.67277859 23.7499122 -18 24 C-18 22.35 -18 20.7 -18 19 C-17.40832031 18.91363281 -16.81664062 18.82726562 -16.20703125 18.73828125 C-12.23126869 18.03133489 -9.43678154 17.29738317 -6.0625 15 C-3.5968216 11.41355869 -3.03851972 8.46915004 -2.45703125 4.20703125 C-2 2 -2 2 0 0 Z " fill="#EDEFF9" transform="translate(185,109)"/>
<path d="M0 0 C-0.98236081 3.53649892 -1.66919571 4.78681501 -4.8125 6.8125 C-8.87816472 9.60266207 -10.61261071 12.7874689 -13 17 C-13.66 17.99 -14.32 18.98 -15 20 C-16.32 20 -17.64 20 -19 20 C-19 23.96 -19 27.92 -19 32 C-19.33 32 -19.66 32 -20 32 C-20.84898783 22.25236198 -19.59811368 15.14714583 -14 7 C-9.74644263 2.38537461 -6.31547287 -0.16619665 0 0 Z " fill="#EBEDF7" transform="translate(88,79)"/>
<path d="M0 0 C4.62 0 9.24 0 14 0 C14 6.6 14 13.2 14 20 C12.68 20.33 11.36 20.66 10 21 C9.67 15.39 9.34 9.78 9 4 C6.03 3.67 3.06 3.34 0 3 C0 2.01 0 1.02 0 0 Z " fill="#FBFCFD" transform="translate(142,129)"/>
<path d="M0 0 C3.63 0 7.26 0 11 0 C11 5.61 11 11.22 11 17 C10.34 17 9.68 17 9 17 C9 16.34 9 15.68 9 15 C8.34 15 7.68 15 7 15 C7 13.35 7 11.7 7 10 C6.34 10 5.68 10 5 10 C4.67 11.32 4.34 12.64 4 14 C2.54393481 9.47907032 3.72967159 6.48351204 5 2 C3.35 1.67 1.7 1.34 0 1 C0 0.67 0 0.34 0 0 Z " fill="#191FCB" transform="translate(141,133)"/>
<path d="M0 0 C0.02578125 0.76183594 0.0515625 1.52367188 0.078125 2.30859375 C0.46482371 9.34826804 1.63054888 14.79394119 5 21 C3.35 21.66 1.7 22.32 0 23 C-4.63421641 15.75903687 -4.42691034 9.44333791 -4 1 C-1 0 -1 0 0 0 Z " fill="#EAECF9" transform="translate(73,98)"/>
<path d="M0 0 C1.8125 1.1875 1.8125 1.1875 3 3 C3.4318188 5.87879197 3.37957373 7.36737712 1.875 9.875 C0 11 0 11 -3.0625 10.8125 C-6 10 -6 10 -8 8 C-8.36487512 5.15397406 -8.40199375 3.6135694 -6.8125 1.1875 C-4.35092224 -0.42525784 -2.88934264 -0.4334014 0 0 Z " fill="#1D22C1" transform="translate(172,159)"/>
<path d="M0 0 C1.875 1.6875 1.875 1.6875 3 4 C2.875 6.625 2.875 6.625 2 9 C-1 11 -1 11 -3.5625 10.75 C-6 10 -6 10 -8 8 C-8.36487512 5.15397406 -8.40199375 3.6135694 -6.8125 1.1875 C-4.32762734 -0.44052002 -2.91288568 -0.50975499 0 0 Z " fill="#262AB4" transform="translate(89,159)"/>
<path d="M0 0 C1.32 0 2.64 0 4 0 C4 6.6 4 13.2 4 20 C3.01 20 2.02 20 1 20 C-1.469364 21.9754912 -2.71700242 24.13792848 -4 27 C-4.1875 24.6875 -4.1875 24.6875 -4 22 C-3.5064502 21.53609863 -3.01290039 21.07219727 -2.50439453 20.59423828 C-0.8300313 19.11763775 -0.8300313 19.11763775 -0.67529297 17.02294922 C-0.70840576 15.92490967 -0.70840576 15.92490967 -0.7421875 14.8046875 C-0.75636719 14.00675781 -0.77054687 13.20882812 -0.78515625 12.38671875 C-0.81480469 11.55785156 -0.84445313 10.72898438 -0.875 9.875 C-0.95256301 6.91391815 -0.99410973 3.96280531 -1 1 C-0.67 0.67 -0.34 0.34 0 0 Z " fill="#FBFBFB" transform="translate(100,129)"/>
<path d="M0 0 C3 0.25 3 0.25 5 2.25 C5.25 5.25 5.25 5.25 5 8.25 C3 10.25 3 10.25 0 10.5 C-3 10.25 -3 10.25 -5 8.25 C-5.25 5.25 -5.25 5.25 -5 2.25 C-3 0.25 -3 0.25 0 0 Z " fill="#0A0ECA" transform="translate(128,169.75)"/>
<path d="M0 0 C2.34321439 1.11650093 3.97194279 2.33595306 6 4 C5.34 4.66 4.68 5.32 4 6 C3.649375 5.484375 3.29875 4.96875 2.9375 4.4375 C0.941838 2.65126345 0.941838 2.65126345 -2.4375 3.0625 C-6.32906254 4.08659541 -7.32988516 5.1518775 -10 8 C-12.75 8.75 -12.75 8.75 -15 9 C-15 5 -15 5 -12.5625 2.25 C-8.63662076 -0.7477754 -4.75765749 -0.95831604 0 0 Z " fill="#0209D1" transform="translate(127,102)"/>
<path d="M0 0 C0.66 0 1.32 0 2 0 C2.29363808 4.99184736 2.07836372 7.97444744 -1 12 C-4.21451269 13.60725635 -7.43612536 13.05748185 -11 13 C-11 11.68 -11 10.36 -11 9 C-9.9275 8.814375 -8.855 8.62875 -7.75 8.4375 C-5.30960856 7.76923865 -4.2431191 7.3033734 -2.64453125 5.30859375 C-1.67912119 3.58340249 -0.83056012 1.79400985 0 0 Z " fill="#F8F9FC" transform="translate(136,171)"/>
<path d="M0 0 C0.9911276 4.08840133 1.44966578 7.8031194 1 12 C-1.3125 14.9375 -1.3125 14.9375 -4 17 C-4.99 17 -5.98 17 -7 17 C-7.33 16.01 -7.66 15.02 -8 14 C-7.360625 13.278125 -6.72125 12.55625 -6.0625 11.8125 C-3.22697255 7.94587166 -3.68100262 5.70521134 -4 1 C-1 0 -1 0 0 0 Z " fill="#F1F3F9" transform="translate(95,157)"/>
<path d="M0 0 C3.96 0 7.92 0 12 0 C12 0.66 12 1.32 12 2 C13.62395997 2.50336767 15.24920541 3.00258976 16.875 3.5 C17.77992188 3.7784375 18.68484375 4.056875 19.6171875 4.34375 C21.90944647 5.08850794 21.90944647 5.08850794 24 5 C24.33 5.66 24.66 6.32 25 7 C25.99 7 26.98 7 28 7 C28 8.65 28 10.3 28 12 C27.01 12 26.02 12 25 12 C24.319375 11.2575 23.63875 10.515 22.9375 9.75 C17.02550196 3.51939129 8.19064411 2.34853805 0 2 C0 1.34 0 0.68 0 0 Z " fill="#2125B9" transform="translate(145,69)"/>
<path d="M0 0 C0 0.66 0 1.32 0 2 C0.66 2.66 1.32 3.32 2 4 C-2.62 4.33 -7.24 4.66 -12 5 C-12 4.34 -12 3.68 -12 3 C-12.99 2.67 -13.98 2.34 -15 2 C-9.32010626 -0.49118146 -6.05525768 -1.38766322 0 0 Z " fill="#E1E4F5" transform="translate(149,72)"/>
<path d="M0 0 C0.89332031 0.20882812 1.78664063 0.41765625 2.70703125 0.6328125 C3.60808594 0.83648437 4.50914063 1.04015625 5.4375 1.25 C6.12457031 1.41757813 6.81164062 1.58515625 7.51953125 1.7578125 C7.51953125 2.0878125 7.51953125 2.4178125 7.51953125 2.7578125 C6.42898437 2.76167969 6.42898437 2.76167969 5.31640625 2.765625 C-4.36111359 3.1378373 -11.49518666 6.4342911 -19.48046875 11.7578125 C-19.48046875 10.7678125 -19.48046875 9.7778125 -19.48046875 8.7578125 C-18.82046875 8.7578125 -18.16046875 8.7578125 -17.48046875 8.7578125 C-17.48046875 7.7678125 -17.48046875 6.7778125 -17.48046875 5.7578125 C-15.83046875 5.7578125 -14.18046875 5.7578125 -12.48046875 5.7578125 C-12.48046875 4.7678125 -12.48046875 3.7778125 -12.48046875 2.7578125 C-11.38734375 2.6340625 -10.29421875 2.5103125 -9.16796875 2.3828125 C-5.54621541 1.768956 -3.51867356 -0.34355553 0 0 Z " fill="#1315C0" transform="translate(94.48046875,73.2421875)"/>
<path d="M0 0 C0.33 0.66 0.66 1.32 1 2 C-2.19902639 2.08886184 -4.92677456 1.91058531 -8 1 C-8 0.01 -8 -0.98 -8 -2 C-10.33294775 -2.04241723 -12.66702567 -2.04092937 -15 -2 C-15.33 -1.67 -15.66 -1.34 -16 -1 C-17.68608966 -0.92794489 -19.37500659 -0.91613932 -21.0625 -0.9375 C-21.98160156 -0.94652344 -22.90070313 -0.95554687 -23.84765625 -0.96484375 C-24.55792969 -0.97644531 -25.26820313 -0.98804687 -26 -1 C-19.42422514 -7.57577486 -6.90665475 -4.43068418 0 0 Z " fill="#191DBA" transform="translate(163,80)"/>
<path d="M0 0 C0.33 0.66 0.66 1.32 1 2 C2.65 2 4.3 2 6 2 C7.33332095 4.6666419 6.67102033 6.16680303 6 9 C5.34 8.01 4.68 7.02 4 6 C4 7.65 4 9.3 4 11 C4.66 11.33 5.32 11.66 6 12 C6 12.99 6 13.98 6 15 C4.35 15.33 2.7 15.66 1 16 C1.33 16.99 1.66 17.98 2 19 C0.35 19 -1.3 19 -3 19 C-2.34 18.154375 -1.68 17.30875 -1 16.4375 C1.30636893 12.4734284 1.57402898 10.5102277 1 6 C-0.36997157 3.12853006 -0.36997157 3.12853006 -2 1 C-1.34 0.67 -0.68 0.34 0 0 Z " fill="#1218C7" transform="translate(136,165)"/>
<path d="M0 0 C0.99 0.33 1.98 0.66 3 1 C1.82255417 3.89009431 0.82835522 5.14303731 -1.625 7.1875 C-4.62710364 10.74262273 -4.43199762 12.71958457 -4.17578125 17.20703125 C-4.11777344 17.79871094 -4.05976562 18.39039063 -4 19 C-4.33 19 -4.66 19 -5 19 C-5.66 15.7 -6.32 12.4 -7 9 C-8.32 9 -9.64 9 -11 9 C-11 8.34 -11 7.68 -11 7 C-5.44488978 4.09619238 -5.44488978 4.09619238 -2.6875 3.5 C-2.130625 3.335 -1.57375 3.17 -1 3 C-0.67 2.01 -0.34 1.02 0 0 Z " fill="#C8CAEC" transform="translate(101,148)"/>
<path d="M0 0 C3.25900191 0.36211132 4.10242829 1.10768102 6.4375 3.5625 C8.75589209 6.25996436 8.75589209 6.25996436 11.8125 6.3125 C12.8953125 6.1578125 12.8953125 6.1578125 14 6 C14 6.66 14 7.32 14 8 C14.69867188 7.97679688 15.39734375 7.95359375 16.1171875 7.9296875 C17.02726562 7.91164063 17.93734375 7.89359375 18.875 7.875 C20.23238281 7.84019531 20.23238281 7.84019531 21.6171875 7.8046875 C24 8 24 8 26 10 C17.40338096 10.66890119 11.21032632 10.50213448 3.890625 5.703125 C1.91522606 3.92363339 0.99853565 2.44322553 0 0 Z " fill="#191DC0" transform="translate(78,118)"/>
<path d="M0 0 C0.66 0.33 1.32 0.66 2 1 C2.02705729 2.77074917 2.04642195 4.54161711 2.0625 6.3125 C2.07410156 7.29863281 2.08570313 8.28476563 2.09765625 9.30078125 C2 12 2 12 1 15 C-0.32 14.67 -1.64 14.34 -3 14 C-2.88617347 12.04098546 -2.75858875 10.0827662 -2.625 8.125 C-2.55539063 7.03445312 -2.48578125 5.94390625 -2.4140625 4.8203125 C-2 2 -2 2 0 0 Z " fill="#F1F3FA" transform="translate(185,109)"/>
<path d="M0 0 C0.66 0 1.32 0 2 0 C2 0.66 2 1.32 2 2 C2.66 2 3.32 2 4 2 C3.34 4.31 2.68 6.62 2 9 C0.35 9 -1.3 9 -3 9 C-3 12.96 -3 16.92 -3 21 C-3.33 21 -3.66 21 -4 21 C-4.4485551 12.82632933 -4.40744316 7.02436254 0 0 Z " fill="#D4D8EF" transform="translate(72,90)"/>
<path d="M0 0 C0.33 0 0.66 0 1 0 C2.59341355 13.30715643 2.59341355 13.30715643 0 18 C-2.0625 19.25 -2.0625 19.25 -4 20 C-4.33 20.66 -4.66 21.32 -5 22 C-6.65 22 -8.3 22 -10 22 C-9.2575 21.484375 -8.515 20.96875 -7.75 20.4375 C-2.54471161 15.82372165 -0.87717453 11.83946921 -0.25 5.0625 C-0.1501205 3.37589845 -0.06106519 1.68845247 0 0 Z " fill="#282DC8" transform="translate(187,110)"/>
<path d="M0 0 C1.45169732 2.90339465 0.72348441 4.90874842 0 8 C-0.99 8.495 -0.99 8.495 -2 9 C-1.67 10.65 -1.34 12.3 -1 14 C-0.34 14 0.32 14 1 14 C1 14.66 1 15.32 1 16 C-1.31 15.34 -3.62 14.68 -6 14 C-5.57202798 8.29370646 -3.15654048 4.58921384 0 0 Z " fill="#2124C2" transform="translate(131,83)"/>
<path d="M0 0 C2.3125 1.5625 2.3125 1.5625 4 3 C3.34 3 2.68 3 2 3 C1.34 4.32 0.68 5.64 0 7 C-0.86625 6.360625 -1.7325 5.72125 -2.625 5.0625 C-5.9598812 3.02451704 -8.16047478 2.36566907 -12 2 C-12 1.67 -12 1.34 -12 1 C-4.38157895 -1.53947368 -4.38157895 -1.53947368 0 0 Z " fill="#E5E6F5" transform="translate(128,74)"/>
<path d="M0 0 C0 3.63 0 7.26 0 11 C-1.32 11.33 -2.64 11.66 -4 12 C-4 8.37 -4 4.74 -4 1 C-1 0 -1 0 0 0 Z " fill="#FAF9FD" transform="translate(73,98)"/>
<path d="M0 0 C0.33 0 0.66 0 1 0 C1.42004622 6.09067026 1.0566405 9.10816881 -3 14 C-3.99 14.495 -3.99 14.495 -5 15 C-5.66 13.35 -6.32 11.7 -7 10 C-5.625 8.5 -5.625 8.5 -4 7 C-3.34 7 -2.68 7 -2 7 C-1.34 4.69 -0.68 2.38 0 0 Z " fill="#2629C7" transform="translate(182,111)"/>
<path d="M0 0 C0 0.99 0 1.98 0 3 C0.66 3.33 1.32 3.66 2 4 C-1.3 4.33 -4.6 4.66 -8 5 C-8 3.35 -8 1.7 -8 0 C-2.25 -1.125 -2.25 -1.125 0 0 Z " fill="#E3E6F7" transform="translate(175,128)"/>
<path d="M0 0 C1.2065625 0.0309375 1.2065625 0.0309375 2.4375 0.0625 C2.7675 1.3825 3.0975 2.7025 3.4375 4.0625 C2.7775 4.0625 2.1175 4.0625 1.4375 4.0625 C1.4375 5.0525 1.4375 6.0425 1.4375 7.0625 C-0.2125 6.7325 -1.8625 6.4025 -3.5625 6.0625 C-3.605221 4.39638095 -3.60313832 2.72867115 -3.5625 1.0625 C-2.5625 0.0625 -2.5625 0.0625 0 0 Z " fill="#0509D7" transform="translate(86.5625,160.9375)"/>
<path d="M0 0 C-0.5908733 5.12090197 -4.51047948 8.51047948 -8 12 C-8.9375 9.375 -8.9375 9.375 -9 6 C-6.69676355 3.19055774 -3.78887916 0 0 0 Z " fill="#1113C7" transform="translate(113,97)"/>
<path d="M0 0 C1.41655793 -0.0272415 2.83327045 -0.04650467 4.25 -0.0625 C5.43335937 -0.07990234 5.43335937 -0.07990234 6.640625 -0.09765625 C8.93924671 -0.00251462 10.83050218 0.23683594 13 1 C13.33 1.66 13.66 2.32 14 3 C14.61875 2.814375 15.2375 2.62875 15.875 2.4375 C18 2 18 2 20 3 C20 2.34 20 1.68 20 1 C20.99 1.33 21.98 1.66 23 2 C18.73751891 6.01891074 18.73751891 6.01891074 15.5625 5.9375 C13 5 13 5 10.125 3.5 C6.69982383 1.85591544 3.76053566 1.37605357 0 1 C0 0.67 0 0.34 0 0 Z " fill="#1C20BE" transform="translate(115,70)"/>
<path d="M0 0 C1.32 0 2.64 0 4 0 C4.66 3.63 5.32 7.26 6 11 C4.02 10.01 2.04 9.02 0 8 C0 5.36 0 2.72 0 0 Z " fill="#0D13C1" transform="translate(177,91)"/>
<path d="M0 0 C1.65 0 3.3 0 5 0 C5 0.33 5 0.66 5 1 C11.93 1.495 11.93 1.495 19 2 C19 2.33 19 2.66 19 3 C13.72 3 8.44 3 3 3 C3 4.65 3 6.3 3 8 C1 5 1 5 1 3 C0.34 2.67 -0.32 2.34 -1 2 C-0.67 1.34 -0.34 0.68 0 0 Z " fill="#0B11C2" transform="translate(138,125)"/>
<path d="M0 0 C0.99580078 0.08701172 0.99580078 0.08701172 2.01171875 0.17578125 C2.01171875 0.50578125 2.01171875 0.83578125 2.01171875 1.17578125 C1.38523437 1.21316406 0.75875 1.25054687 0.11328125 1.2890625 C-0.70398438 1.35480469 -1.52125 1.42054687 -2.36328125 1.48828125 C-3.58144531 1.57529297 -3.58144531 1.57529297 -4.82421875 1.6640625 C-7.36749463 2.00568653 -7.36749463 2.00568653 -8.98828125 5.17578125 C-9.15541694 7.80109649 -9.15541694 7.80109649 -8.98828125 10.17578125 C-9.31828125 8.85578125 -9.64828125 7.53578125 -9.98828125 6.17578125 C-10.77203125 6.67078125 -11.55578125 7.16578125 -12.36328125 7.67578125 C-14.98828125 9.17578125 -14.98828125 9.17578125 -16.98828125 9.17578125 C-16.98828125 8.18578125 -16.98828125 7.19578125 -16.98828125 6.17578125 C-16.15296875 6.08296875 -16.15296875 6.08296875 -15.30078125 5.98828125 C-12.7255922 5.30632041 -12.7255922 5.30632041 -10.86328125 2.61328125 C-7.10610262 -0.57215281 -4.76129895 -0.24327805 0 0 Z " fill="#1B1FBE" transform="translate(119.98828125,75.82421875)"/>
<path d="M0 0 C0 1.65 0 3.3 0 5 C-4.75 6.125 -4.75 6.125 -7 5 C-7 3.68 -7 2.36 -7 1 C-2.25 0 -2.25 0 0 0 Z " fill="#151AC9" transform="translate(173,164)"/>
<path d="M0 0 C1.32 0.33 2.64 0.66 4 1 C4 4 4 4 3 6 C4.32 6.66 5.64 7.32 7 8 C6.34 8.66 5.68 9.32 5 10 C2.69 7.69 0.38 5.38 -2 3 C-1.34 2.01 -0.68 1.02 0 0 Z " fill="#E4E8F7" transform="translate(154,148)"/>
<path d="M0 0 C2.64 0.33 5.28 0.66 8 1 C8 4 8 4 6.5 5.6875 C6.005 6.120625 5.51 6.55375 5 7 C3.02 5.35 1.04 3.7 -1 2 C-0.67 1.34 -0.34 0.68 0 0 Z " fill="#DDE1F2" transform="translate(161,77)"/>
<path d="M0 0 C0.144375 0.61875 0.28875 1.2375 0.4375 1.875 C0.93152225 4.03258322 0.93152225 4.03258322 2 6 C4.12903226 10.61290323 4.12903226 10.61290323 3 14 C1.29159719 12.36587557 0.06546953 11.13093906 -1 9 C-0.91348369 7.45386986 -0.75997364 5.91090613 -0.5625 4.375 C-0.46066406 3.55773437 -0.35882813 2.74046875 -0.25390625 1.8984375 C-0.17011719 1.27195313 -0.08632812 0.64546875 0 0 Z " fill="#D1D2EE" transform="translate(160,158)"/>
<path d="M0 0 C6.40141012 -0.51211281 9.98010898 -0.11888494 15 4 C14.34 4.66 13.68 5.32 13 6 C12.649375 5.505 12.29875 5.01 11.9375 4.5 C9.94712567 2.64289897 9.94712567 2.64289897 6.5 3 C3 3 3 3 1.28125 1.5 C0.8584375 1.005 0.435625 0.51 0 0 Z " fill="#191DBD" transform="translate(118,102)"/>
<path d="M0 0 C0.99 0.33 1.98 0.66 3 1 C1.50902342 4.7952131 -0.75700849 6.61042731 -4 9 C-4 7.35 -4 5.7 -4 4 C-3.01 3.67 -2.02 3.34 -1 3 C-0.67 2.01 -0.34 1.02 0 0 Z " fill="#DDE0F5" transform="translate(101,148)"/>
<path d="M0 0 C1.32 0.66 2.64 1.32 4 2 C3.32902328 6.19360449 1.1441606 9.40334352 -1 13 C-2.12758089 9.61725734 -1.81750262 8.23221777 -1.0625 4.8125 C-0.86785156 3.91144531 -0.67320313 3.01039062 -0.47265625 2.08203125 C-0.23869141 1.05142578 -0.23869141 1.05142578 0 0 Z " fill="#1D20BD" transform="translate(123,77)"/>
<path d="M0 0 C5.27790097 -0.50265724 7.86225252 0.74891269 12 4 C12 4.33 12 4.66 12 5 C8.80097361 5.08886184 6.07322544 4.91058531 3 4 C3 3.01 3 2.02 3 1 C2.01 0.67 1.02 0.34 0 0 Z " fill="#0E10C5" transform="translate(152,77)"/>
<path d="M0 0 C1.65 0 3.3 0 5 0 C5.33 0.66 5.66 1.32 6 2 C6.99 2 7.98 2 9 2 C9 3.65 9 5.3 9 7 C6 7 6 7 3.375 4.625 C1 2 1 2 0 0 Z " fill="#1215C4" transform="translate(164,74)"/>
<path d="M0 0 C0.66 0 1.32 0 2 0 C3.66666667 3.33333333 5.33333333 6.66666667 7 10 C6.01 10.495 6.01 10.495 5 11 C4.34 10.34 3.68 9.68 3 9 C2.34 8.67 1.68 8.34 1 8 C0.40644386 5.35139573 0.25790731 2.70802678 0 0 Z " fill="#F8F7F9" transform="translate(77,161)"/>
<path d="M0 0 C-4.455 0.495 -4.455 0.495 -9 1 C-9 2.65 -9 4.3 -9 6 C-10.32 5.67 -11.64 5.34 -13 5 C-12.67 3.35 -12.34 1.7 -12 0 C-4.5 -1.125 -4.5 -1.125 0 0 Z " fill="#0D11C0" transform="translate(176,127)"/>
<path d="M0 0 C0.66 0.33 1.32 0.66 2 1 C2.25 3.25 2.25 3.25 2 6 C0 8.3125 0 8.3125 -2 10 C-2.1953125 3.9453125 -2.1953125 3.9453125 -2 2 C-1.34 1.34 -0.68 0.68 0 0 Z " fill="#FBFBFC" transform="translate(185,109)"/>
<path d="M0 0 C0 0.33 0 0.66 0 1 C1.65 1.33 3.3 1.66 5 2 C5 2.33 5 2.66 5 3 C1.7 3.66 -1.6 4.32 -5 5 C-5 4.01 -5 3.02 -5 2 C-5.66 1.34 -6.32 0.68 -7 0 C-4.3333581 -1.33332095 -2.83319697 -0.67102033 0 0 Z " fill="#DCDDF4" transform="translate(120,99)"/>
<path d="M0 0 C2.48046875 0.14453125 2.48046875 0.14453125 5.1875 0.8125 C6.53908203 1.13154297 6.53908203 1.13154297 7.91796875 1.45703125 C8.60503906 1.63621094 9.29210937 1.81539063 10 2 C10 2.33 10 2.66 10 3 C5.71 3 1.42 3 -3 3 C-2.01 2.01 -1.02 1.02 0 0 Z " fill="#060BB7" transform="translate(92,73)"/>
<path d="M0 0 C1.485 0.99 1.485 0.99 3 2 C2.67 4.97 2.34 7.94 2 11 C0.4375 9.4375 0.4375 9.4375 -1 7 C-0.6875 3.25 -0.6875 3.25 0 0 Z " fill="#040ABC" transform="translate(157,156)"/>
<path d="M0 0 C1.32 0.66 2.64 1.32 4 2 C0.535 4.97 0.535 4.97 -3 8 C-3.33 7.34 -3.66 6.68 -4 6 C-3.34 6 -2.68 6 -2 6 C-1.34 4.02 -0.68 2.04 0 0 Z " fill="#E1E4F7" transform="translate(108,75)"/>
<path d="M0 0 C1.32 0 2.64 0 4 0 C3.01 2.97 2.02 5.94 1 9 C0.67 9 0.34 9 0 9 C0 6.03 0 3.06 0 0 Z " fill="#0D11BC" transform="translate(68,89)"/>
<path d="M0 0 C0.33 0 0.66 0 1 0 C1 2.64 1 5.28 1 8 C0.01 8 -0.98 8 -2 8 C-2.125 5.125 -2.125 5.125 -2 2 C-1.34 1.34 -0.68 0.68 0 0 Z " fill="#0308C0" transform="translate(171,95)"/>
<path d="M0 0 C4.455 0.99 4.455 0.99 9 2 C8.67 2.66 8.34 3.32 8 4 C6.02 4 4.04 4 2 4 C1.34 2.68 0.68 1.36 0 0 Z " fill="#272BB2" transform="translate(123,176)"/>
<path d="M0 0 C0.33 0 0.66 0 1 0 C1.29162929 4.95769796 1.12940055 8.02806853 -2 12 C-2.66 12 -3.32 12 -4 12 C-3.71125 11.319375 -3.4225 10.63875 -3.125 9.9375 C-1.87402645 6.67106907 -0.92552045 3.37153877 0 0 Z " fill="#DFE4F8" transform="translate(137,171)"/>
<path d="M0 0 C2.31 0 4.62 0 7 0 C7 0.66 7 1.32 7 2 C6.34 2 5.68 2 5 2 C5 2.66 5 3.32 5 4 C2 3 2 3 0 2 C0 1.34 0 0.68 0 0 Z " fill="#DFE1EF" transform="translate(83,154)"/>
<path d="M0 0 C0.99 0 1.98 0 3 0 C3.33 1.65 3.66 3.3 4 5 C3.34 5 2.68 5 2 5 C2 5.66 2 6.32 2 7 C1.34 7 0.68 7 0 7 C0 4.69 0 2.38 0 0 Z " fill="#FAFCFA" transform="translate(173,95)"/>
<path d="M0 0 C0.66 0.33 1.32 0.66 2 1 C-0.475 4.465 -0.475 4.465 -3 8 C-3.66 7.67 -4.32 7.34 -5 7 C-3.70700306 4.11562221 -2.34058637 2.12780579 0 0 Z " fill="#1315C0" transform="translate(116,103)"/>
<path d="M0 0 C0.66 0.33 1.32 0.66 2 1 C1.67 2.65 1.34 4.3 1 6 C0.01 6 -0.98 6 -2 6 C-2 4.35 -2 2.7 -2 1 C-1.34 0.67 -0.68 0.34 0 0 Z " fill="#070BC5" transform="translate(119,91)"/>
<path d="M0 0 C1.43088528 2.86177057 0.59991697 4.93375773 0 8 C-1.32 8 -2.64 8 -4 8 C-2.87548273 5.0280615 -1.77706209 2.66559313 0 0 Z " fill="#1A1DBE" transform="translate(131,83)"/>
<path d="M0 0 C-0.6875 1.9375 -0.6875 1.9375 -2 4 C-4.625 4.75 -4.625 4.75 -7 5 C-2.25 0 -2.25 0 0 0 Z " fill="#1C1FBE" transform="translate(86,84)"/>
<path d="M0 0 C2.64 0.33 5.28 0.66 8 1 C8 1.33 8 1.66 8 2 C4.37 2.66 0.74 3.32 -3 4 C-2.01 2.68 -1.02 1.36 0 0 Z " fill="#060AC2" transform="translate(112,68)"/>
<path d="M0 0 C1.32 0.66 2.64 1.32 4 2 C3.34 2.66 2.68 3.32 2 4 C1.30251417 5.31747324 0.63040043 6.64914193 0 8 C-0.79953138 4.71303767 -1.09658936 3.28976808 0 0 Z " fill="#E4E7F9" transform="translate(80,158)"/>
<path d="M0 0 C0.26218749 3.14624993 0.24754367 4.61837017 -1.5 7.3125 C-2.2425 8.1478125 -2.2425 8.1478125 -3 9 C-3.33 6.36 -3.66 3.72 -4 1 C-1 0 -1 0 0 0 Z " fill="#FBFBFD" transform="translate(95,157)"/>
<path d="M0 0 C0 0.66 0 1.32 0 2 C-0.66 2 -1.32 2 -2 2 C-2 2.66 -2 3.32 -2 4 C-4.31 3.34 -6.62 2.68 -9 2 C-9 1.67 -9 1.34 -9 1 C-5.94152152 0.45627049 -3.11227195 0 0 0 Z " fill="#171EC2" transform="translate(176,132)"/>
<path d="M0 0 C2.50037734 2.17424117 3.43628586 3.73045798 4 7 C3.34 7 2.68 7 2 7 C1.67 6.01 1.34 5.02 1 4 C-0.99665314 2.31461399 -0.99665314 2.31461399 -3 1 C-2.01 0.67 -1.02 0.34 0 0 Z " fill="#1416C2" transform="translate(167,85)"/>
</svg>
